HIERARCHY
ROOT Hips
{
  OFFSET 5.84602e-005 68.8428 3.50346
  CHANNELS 6 Xposition Yposition Zposition Zrotation Xrotation Yrotation
  JOINT Spine
  {
    OFFSET 0 8.597 -4.6522
    CHANNELS 3 Zrotation Xrotation Yrotation
    JOINT Spine1
    {
      OFFSET 0 7.8454 0.4098
      CHANNELS 3 Zrotation Xrotation Yrotation
      JOINT Spine2
      {
        OFFSET 0 9.7078 -2.1609
        CHANNELS 3 Zrotation Xrotation Yrotation
        JOINT Neck
        {
          OFFSET 0 21.8761 -0.4549
          CHANNELS 3 Zrotation Xrotation Yrotation
          JOINT Head
          {
            OFFSET 0 12.3537 3.3602
            CHANNELS 3 Zrotation Xrotation Yrotation
            End Site
            {
              OFFSET 0.0001 18.9506 0.5657
            }
          }
        }
        JOINT LeftShoulder
        {
          OFFSET 2.2086 21.1115 7.2329
          CHANNELS 3 Zrotation Xrotation Yrotation
          JOINT LeftArm
          {
            OFFSET 13.1193 3.0282 -4.8998
            CHANNELS 3 Zrotation Xrotation Yrotation
            JOINT LeftForeArm
            {
              OFFSET 27.4081 -0.0973053 -0.2375
              CHANNELS 3 Zrotation Xrotation Yrotation
              JOINT LeftHand
              {
                OFFSET 22.8641 0.0662994 -0.1369
                CHANNELS 3 Zrotation Xrotation Yrotation
                JOINT LeftHandIndex1
                {
                  OFFSET 8.8614 0.775009 2.4612
                  CHANNELS 3 Zrotation Xrotation Yrotation
                  JOINT LeftHandIndex2
                  {
                    OFFSET 3.3146 -0.808304 0.5841
                    CHANNELS 3 Zrotation Xrotation Yrotation
                    JOINT LeftHandIndex3
                    {
                      OFFSET 2.2628 -0.552002 0.3989
                      CHANNELS 3 Zrotation Xrotation Yrotation
                      End Site
                      {
                        OFFSET 1.6102 -0.4807 0.2612
                      }
                    }
                  }
                }
                JOINT LeftHandMiddle1
                {
                  OFFSET 8.9937 0.895004 0.2143
                  CHANNELS 3 Zrotation Xrotation Yrotation
                  JOINT LeftHandMiddle2
                  {
                    OFFSET 4.0984 0.0113983 -0.0242
                    CHANNELS 3 Zrotation Xrotation Yrotation
                    JOINT LeftHandMiddle3
                    {
                      OFFSET 2.2716 0.00689697 -0.0138001
                      CHANNELS 3 Zrotation Xrotation Yrotation
                      End Site
                      {
                        OFFSET 2.0404 -0.1441 0.0027
                      }
                    }
                  }
                }
                JOINT LeftHandRing1
                {
                  OFFSET 8.5234 0.597198 -2.0164
                  CHANNELS 3 Zrotation Xrotation Yrotation
                  JOINT LeftHandRing2
                  {
                    OFFSET 3.7188 -0.188293 -0.2328
                    CHANNELS 3 Zrotation Xrotation Yrotation
                    JOINT LeftHandRing3
                    {
                      OFFSET 2.1191 -0.106598 -0.1332
                      CHANNELS 3 Zrotation Xrotation Yrotation
                      End Site
                      {
                        OFFSET 1.8737 -0.2304 -0.0886
                      }
                    }
                  }
                }
                JOINT LeftHandPinky1
                {
                  OFFSET 7.9094 -0.601089 -3.4825
                  CHANNELS 3 Zrotation Xrotation Yrotation
                  JOINT LeftHandPinky2
                  {
                    OFFSET 2.2874 -0.477005 -0.6314
                    CHANNELS 3 Zrotation Xrotation Yrotation
                    JOINT LeftHandPinky3
                    {
                      OFFSET 1.6774 -0.349396 -0.4633
                      CHANNELS 3 Zrotation Xrotation Yrotation
                      End Site
                      {
                        OFFSET 1.4888 -0.4091 -0.3416
                      }
                    }
                  }
                }
                JOINT LeftHandThumb1
                {
                  OFFSET 1.833 -1.3875 1.3896
                  CHANNELS 3 Zrotation Xrotation Yrotation
                  JOINT LeftHandThumb2
                  {
                    OFFSET 3.4129 -1.121 2.5732
                    CHANNELS 3 Zrotation Xrotation Yrotation
                    JOINT LeftHandThumb3
                    {
                      OFFSET 2.2474 -0.804199 1.6192
                      CHANNELS 3 Zrotation Xrotation Yrotation
                      End Site
                      {
                        OFFSET 1.6527 -0.5689 1.1317
                      }
                    }
                  }
                }
              }
            }
          }
        }
        JOINT RightShoulder
        {
          OFFSET -2.2086 21.1115 7.2329
          CHANNELS 3 Zrotation Xrotation Yrotation
          JOINT RightArm
          {
            OFFSET -13.1216 3.0287 -4.9007
            CHANNELS 3 Zrotation Xrotation Yrotation
            JOINT RightForeArm
            {
              OFFSET -27.4081 -0.0973053 -0.2375
              CHANNELS 3 Zrotation Xrotation Yrotation
              JOINT RightHand
              {
                OFFSET -22.8641 0.0664063 -0.1369
                CHANNELS 3 Zrotation Xrotation Yrotation
                JOINT RightHandIndex1
                {
                  OFFSET -8.8614 0.774994 2.4612
                  CHANNELS 3 Zrotation Xrotation Yrotation
                  JOINT RightHandIndex2
                  {
                    OFFSET -3.3146 -0.808304 0.5841
                    CHANNELS 3 Zrotation Xrotation Yrotation
                    JOINT RightHandIndex3
                    {
                      OFFSET -2.2628 -0.552002 0.3989
                      CHANNELS 3 Zrotation Xrotation Yrotation
                      End Site
                      {
                        OFFSET -1.6102 -0.4807 0.2612
                      }
                    }
                  }
                }
                JOINT RightHandMiddle1
                {
                  OFFSET -8.9937 0.894989 0.2143
                  CHANNELS 3 Zrotation Xrotation Yrotation
                  JOINT RightHandMiddle2
                  {
                    OFFSET -4.0984 0.0113983 -0.0242
                    CHANNELS 3 Zrotation Xrotation Yrotation
                    JOINT RightHandMiddle3
                    {
                      OFFSET -2.2716 0.00691223 -0.0138001
                      CHANNELS 3 Zrotation Xrotation Yrotation
                      End Site
                      {
                        OFFSET -2.0404 -0.1441 0.0027
                      }
                    }
                  }
                }
                JOINT RightHandRing1
                {
                  OFFSET -8.5234 0.597198 -2.0164
                  CHANNELS 3 Zrotation Xrotation Yrotation
                  JOINT RightHandRing2
                  {
                    OFFSET -3.7188 -0.188309 -0.2328
                    CHANNELS 3 Zrotation Xrotation Yrotation
                    JOINT RightHandRing3
                    {
                      OFFSET -2.1191 -0.106598 -0.1332
                      CHANNELS 3 Zrotation Xrotation Yrotation
                      End Site
                      {
                        OFFSET -1.8737 -0.2304 -0.0886
                      }
                    }
                  }
                }
                JOINT RightHandPinky1
                {
                  OFFSET -7.9094 -0.601105 -3.4825
                  CHANNELS 3 Zrotation Xrotation Yrotation
                  JOINT RightHandPinky2
                  {
                    OFFSET -2.2874 -0.477005 -0.6314
                    CHANNELS 3 Zrotation Xrotation Yrotation
                    JOINT RightHandPinky3
                    {
                      OFFSET -1.6774 -0.349396 -0.4633
                      CHANNELS 3 Zrotation Xrotation Yrotation
                      End Site
                      {
                        OFFSET -1.4888 -0.4091 -0.3416
                      }
                    }
                  }
                }
                JOINT RightHandThumb1
                {
                  OFFSET -1.833 -1.38751 1.3896
                  CHANNELS 3 Zrotation Xrotation Yrotation
                  JOINT RightHandThumb2
                  {
                    OFFSET -3.41299 -1.12099 2.5732
                    CHANNELS 3 Zrotation Xrotation Yrotation
                    JOINT RightHandThumb3
                    {
                      OFFSET -2.24741 -0.804108 1.6192
                      CHANNELS 3 Zrotation Xrotation Yrotation
                      End Site
                      {
                        OFFSET -1.6527 -0.5689 1.1317
                      }
                    }
                  }
                }
              }
            }
          }
        }
      }
    }
  }
  JOINT RightUpLeg
  {
    OFFSET -9.1966 3.8861 -0.7581
    CHANNELS 3 Zrotation Xrotation Yrotation
    JOINT RightLeg
    {
      OFFSET -0.7359 -41.0265 0
      CHANNELS 3 Zrotation Xrotation Yrotation
      JOINT RightFoot
      {
        OFFSET 0 -40.2855 0
        CHANNELS 3 Zrotation Xrotation Yrotation
        JOINT RightToeBase
        {
          OFFSET 0 -5.6122 11.7359
          CHANNELS 3 Zrotation Xrotation Yrotation
          End Site
          {
            OFFSET 0 0 7.8731
          }
        }
      }
    }
  }
  JOINT LeftUpLeg
  {
    OFFSET 9.1965 3.8864 -0.7581
    CHANNELS 3 Zrotation Xrotation Yrotation
    JOINT LeftLeg
    {
      OFFSET 0.7359 -41.0268 0
      CHANNELS 3 Zrotation Xrotation Yrotation
      JOINT LeftFoot
      {
        OFFSET 0 -40.2855 0
        CHANNELS 3 Zrotation Xrotation Yrotation
        JOINT LeftToeBase
        {
          OFFSET 0 -5.6122 11.7359
          CHANNELS 3 Zrotation Xrotation Yrotation
          End Site
          {
            OFFSET 0 0 7.8731
          }
        }
      }
    }
  }
}
MOTION
Frames:	4
Frame Time:	0.0333333
5.84602e-005 68.8428 3.50346 0 0 -0 0 0 -0 0 0 -0 0 0 -0 0 0 -0 0 0 -0 0 0 -0 0 0 -0 0 0 -0 0 0 -0 0 0 -0 0 0 -0 0 0 -0 0 0 -0 -0.0146107 -8.87603e-005 -2.63497e-007 2.99804e-018 -2.42657e-020 -1.42182e-022 0 0 -0 -0.0187562 -0.001176 5.858e-005 5.06224e-018 3.88251e-019 1.21329e-020 0 0 -0 -0.012269 -0.00324817 0.000675346 -1.74678e-018 3.88251e-019 -0 0 0 -0 0 0 -0 0 0 -0 0 0 -0 0 0 -0 0 0 -0 0 0 -0 0 0 -0 0 0 -0 0 0 -0 0 0 -0 0.0149955 -9.10982e-005 2.64101e-007 -9.69331e-018 1.21329e-020 -4.7394e-023 0 0 -0 0.0189956 -0.00119102 -5.96516e-005 -5.41541e-019 0 2.42657e-020 0 0 -0 0.0122698 -0.00324857 -0.000673756 -2.00796e-019 0 -1.94126e-019 0 0 -0 0 0 -0 0 0 -0 3.39842 1.33031 -0.0637918 -5.65207e-008 0.834868 -0.000436188 -3.39935 -2.16518 -0.0642563 -8.89002e-024 -1.18485e-023 -1.48106e-024 -3.39844 1.35642 0.0640283 -3.18788e-007 0.782166 -0.000588827 3.39931 -2.13858 0.0634662 1.1399e-023 0 -0 
-11.7674 31.9295 3.32743 -90 0 -0 2.7842 2.19387 0.215115 5.56628 4.39572 0.3236 5.56628 4.39572 0.323601 4.82086 33.9023 -2.69407 -26.3479 -8.9811 -11.4225 -3.87842 -0.969428 15.9528 10.0428 35.3202 -112.267 -20.8627 -9.92152 -66.5104 -50.6795 -2.4869 -34.0405 -6.36111e-015 -7.95139e-016 1.19271e-015 3.18055e-015 -1.59028e-015 1.19271e-015 3.18055e-015 -1.59028e-015 1.19271e-015 -6.36111e-015 -7.95139e-016 1.19271e-015 -0.014616 -8.86919e-005 -1.53598e-006 6.36111e-015 -1.59028e-015 -3.97569e-016 -6.36111e-015 -7.95139e-016 1.19271e-015 -0.0187285 -0.00117765 5.71767e-005 9.54166e-015 -1.59028e-015 3.97569e-016 -6.36111e-015 -7.95139e-016 1.19271e-015 -0.0122441 -0.00324162 0.000680585 -1.10348e-032 7.95139e-016 7.95139e-016 -6.36111e-015 -7.95139e-016 1.19271e-015 3.18055e-015 -1.59028e-015 1.19271e-015 3.18055e-015 -1.59028e-015 1.19271e-015 3.25093e-008 -1.69936e-005 -3.3776e-007 11.962 39.2696 81.706 24.2253 -12.3091 64.6484 41.2093 -2.99345 4.00547 -1.87245e-006 -2.0049e-006 -1.39339e-006 -5.7503e-006 -1.76761e-007 -2.64893e-007 -4.0098e-006 3.74491e-006 2.96353e-006 -1.87245e-006 -2.0049e-006 -1.39339e-006 0.0150019 -9.44326e-005 2.75995e-006 -4.01016e-006 3.7453e-006 2.96305e-006 -1.87245e-006 -2.0049e-006 -1.39339e-006 0.0189968 -0.00119069 -7.07831e-005 -4.01024e-006 3.74543e-006 2.96296e-006 -1.87245e-006 -2.0049e-006 -1.39339e-006 0.0122451 -0.00324597 -0.000676622 -4.01004e-006 3.74528e-006 2.96326e-006 -1.87245e-006 -2.0049e-006 -1.39339e-006 -5.7503e-006 -1.76761e-007 -2.64893e-007 -4.0098e-006 3.74491e-006 2.96353e-006 19.9579 -65.202 12.1397 170.638 68.1274 -174.097 -3.12874 1.68108 -0.733617 -2.24071e-007 5.3179e-007 -6.21006e-007 -7.1837 -56.3534 -8.78064 -174.649 76.2221 176.969 1.89872 13.8643 0.219323 -7.95139e-016 -3.18055e-015 7.95139e-016 
-11.7674 31.9295 3.32743 -90 0 -0 2.7842 2.19387 0.215116 5.56628 4.39572 0.3236 5.56628 4.39572 0.3236 4.82085 33.9024 -2.69407 -26.3479 -8.98111 -11.4225 -3.87843 -0.969424 15.9528 10.0427 35.3202 -112.267 -20.8627 -9.92151 -66.5104 -50.6795 -2.48688 -34.0405 -0 -7.95139e-016 -0 -6.36111e-015 0 3.97569e-016 -3.18055e-015 -1.59028e-015 3.97569e-016 -0 -7.95139e-016 -0 -0.0145751 -9.05536e-005 -2.60606e-006 6.36111e-015 -1.59028e-015 -3.97569e-016 -0 -7.95139e-016 -0 -0.018789 -0.00117722 6.0293e-005 -3.18055e-015 5.56597e-015 -1.03368e-014 -0 -7.95139e-016 -0 -0.0122769 -0.00325203 0.00067698 6.36111e-015 7.95139e-016 7.95139e-016 -0 -7.95139e-016 -0 -6.36111e-015 0 3.97569e-016 -3.18055e-015 -1.59028e-015 3.97569e-016 1.11043e-007 -1.52773e-005 -1.15366e-006 11.9621 39.2696 81.706 24.2253 -12.3091 64.6484 41.2093 -2.99346 4.00546 -1.87295e-006 -4.43144e-008 -3.53271e-007 3.18055e-015 0 4.96962e-017 3.18055e-015 0 -0 -1.87295e-006 -4.43144e-008 -3.53271e-007 0.0150085 -9.33011e-005 -2.11318e-006 -3.18055e-015 1.98785e-016 -6.4605e-016 -1.87295e-006 -4.43144e-008 -3.53271e-007 0.0190141 -0.00119007 -5.83176e-005 -2.58627e-033 -5.96354e-016 -2.48481e-016 -1.87295e-006 -4.43144e-008 -3.53271e-007 0.0122927 -0.00325319 -0.000688813 3.18055e-015 3.97569e-016 1.39149e-015 -1.87295e-006 -4.43144e-008 -3.53271e-007 3.18055e-015 0 4.96962e-017 3.18055e-015 0 -0 19.9579 -65.202 12.1397 170.638 68.1274 -174.097 -3.12876 1.6811 -0.733633 -1.59028e-015 -3.18055e-015 3.97569e-016 -7.18367 -56.3534 -8.78064 -174.649 76.2221 176.969 1.89871 13.8643 0.219295 -2.44549e-006 1.64903e-007 4.16063e-006 
-11.7674 31.9295 3.32743 -90 0 -0 2.7842 2.19387 0.215116 5.56628 4.39572 0.3236 5.56628 4.39572 0.3236 4.82085 33.9024 -2.69407 -26.3479 -8.98111 -11.4225 -3.87843 -0.969424 15.9528 10.0427 35.3202 -112.267 -20.8627 -9.92151 -66.5104 -50.6795 -2.48688 -34.0405 -0 -7.95139e-016 -0 -6.36111e-015 0 3.97569e-016 -3.18055e-015 -1.59028e-015 3.97569e-016 -0 -7.95139e-016 -0 -0.0145751 -9.05536e-005 -2.60606e-006 6.36111e-015 -1.59028e-015 -3.97569e-016 -0 -7.95139e-016 -0 -0.018789 -0.00117722 6.0293e-005 -3.18055e-015 5.56597e-015 -1.03368e-014 -0 -7.95139e-016 -0 -0.0122769 -0.00325203 0.00067698 6.36111e-015 7.95139e-016 7.95139e-016 -0 -7.95139e-016 -0 -6.36111e-015 0 3.97569e-016 -3.18055e-015 -1.59028e-015 3.97569e-016 1.11043e-007 -1.52773e-005 -1.15366e-006 11.9621 39.2696 81.706 24.2253 -12.3091 64.6484 41.2093 -2.99346 4.00546 -1.87295e-006 -4.43144e-008 -3.53271e-007 3.18055e-015 0 4.96962e-017 3.18055e-015 0 -0 -1.87295e-006 -4.43144e-008 -3.53271e-007 0.0150085 -9.33011e-005 -2.11318e-006 -3.18055e-015 1.98785e-016 -6.4605e-016 -1.87295e-006 -4.43144e-008 -3.53271e-007 0.0190141 -0.00119007 -5.83176e-005 -2.58627e-033 -5.96354e-016 -2.48481e-016 -1.87295e-006 -4.43144e-008 -3.53271e-007 0.0122927 -0.00325319 -0.000688813 3.18055e-015 3.97569e-016 1.39149e-015 -1.87295e-006 -4.43144e-008 -3.53271e-007 3.18055e-015 0 4.96962e-017 3.18055e-015 0 -0 19.9579 -65.202 12.1397 170.638 68.1274 -174.097 -3.12876 1.6811 -0.733633 -1.59028e-015 -3.18055e-015 3.97569e-016 -7.18367 -56.3534 -8.78064 -174.649 76.2221 176.969 1.89871 13.8643 0.219295 -2.44549e-006 1.64903e-007 4.16063e-006 
